<svg xmlns="http://www.w3.org/2000/svg" viewBox="0 0 120 120" width="120" height="120">
  <path d="M 45.00,64.00 C 44.82,63.71 44.26,62.83 43.91,62.25 C 43.56,61.67 43.21,61.08 42.90,60.50 C 42.59,59.92 42.29,59.33 42.03,58.75 C 41.77,58.17 41.54,57.58 41.36,57.00 C 41.18,56.42 41.04,55.83 40.94,55.25 C 40.85,54.67 40.80,54.08 40.80,53.50 C 40.80,52.92 40.85,52.33 40.94,51.75 C 41.04,51.17 41.18,50.58 41.36,50.00 C 41.54,49.42 41.77,48.83 42.03,48.25 C 42.29,47.67 42.59,47.08 42.90,46.50 C 43.21,45.92 43.56,45.33 43.91,44.75 C 44.26,44.17 44.64,43.58 45.00,43.00 C 45.36,42.42 45.74,41.83 46.09,41.25 C 46.44,40.67 46.79,40.08 47.10,39.50 C 47.41,38.92 47.71,38.33 47.97,37.75 C 48.23,37.17 48.46,36.58 48.64,36.00 C 48.82,35.42 48.96,34.83 49.06,34.25 C 49.15,33.67 49.20,33.08 49.20,32.50 C 49.20,31.92 49.15,31.33 49.06,30.75 C 48.96,30.17 48.82,29.58 48.64,29.00 C 48.46,28.42 48.23,27.83 47.97,27.25 C 47.71,26.67 47.41,26.08 47.10,25.50 C 46.79,24.92 46.44,24.33 46.09,23.75 C 45.74,23.17 45.18,22.29 45.00,22.00" fill="none" stroke="currentColor" stroke-width="9.5" stroke-linecap="round"/>
  <path d="M 60.00,64.00 C 60.20,63.63 60.81,62.53 61.19,61.79 C 61.57,61.06 61.96,60.32 62.30,59.58 C 62.64,58.85 62.97,58.11 63.25,57.38 C 63.53,56.64 63.79,55.90 63.98,55.17 C 64.18,54.43 64.34,53.69 64.44,52.96 C 64.55,52.22 64.60,51.49 64.60,50.75 C 64.60,50.01 64.55,49.28 64.44,48.54 C 64.34,47.81 64.18,47.07 63.98,46.33 C 63.79,45.60 63.53,44.86 63.25,44.12 C 62.97,43.39 62.64,42.65 62.30,41.92 C 61.96,41.18 61.57,40.44 61.19,39.71 C 60.81,38.97 60.40,38.24 60.00,37.50 C 59.60,36.76 59.19,36.03 58.81,35.29 C 58.43,34.56 58.04,33.82 57.70,33.08 C 57.36,32.35 57.03,31.61 56.75,30.88 C 56.47,30.14 56.21,29.40 56.02,28.67 C 55.82,27.93 55.66,27.19 55.56,26.46 C 55.45,25.72 55.40,24.99 55.40,24.25 C 55.40,23.51 55.45,22.78 55.56,22.04 C 55.66,21.31 55.82,20.57 56.02,19.83 C 56.21,19.10 56.47,18.36 56.75,17.62 C 57.03,16.89 57.36,16.15 57.70,15.42 C 58.04,14.68 58.43,13.94 58.81,13.21 C 59.19,12.47 59.80,11.37 60.00,11.00" fill="none" stroke="currentColor" stroke-width="9.5" stroke-linecap="round"/>
  <path d="M 75.00,64.00 C 75.18,63.71 75.74,62.83 76.09,62.25 C 76.44,61.67 76.79,61.08 77.10,60.50 C 77.41,59.92 77.71,59.33 77.97,58.75 C 78.23,58.17 78.46,57.58 78.64,57.00 C 78.82,56.42 78.96,55.83 79.06,55.25 C 79.15,54.67 79.20,54.08 79.20,53.50 C 79.20,52.92 79.15,52.33 79.06,51.75 C 78.96,51.17 78.82,50.58 78.64,50.00 C 78.46,49.42 78.23,48.83 77.97,48.25 C 77.71,47.67 77.41,47.08 77.10,46.50 C 76.79,45.92 76.44,45.33 76.09,44.75 C 75.74,44.17 75.36,43.58 75.00,43.00 C 74.64,42.42 74.26,41.83 73.91,41.25 C 73.56,40.67 73.21,40.08 72.90,39.50 C 72.59,38.92 72.29,38.33 72.03,37.75 C 71.77,37.17 71.54,36.58 71.36,36.00 C 71.18,35.42 71.04,34.83 70.94,34.25 C 70.85,33.67 70.80,33.08 70.80,32.50 C 70.80,31.92 70.85,31.33 70.94,30.75 C 71.04,30.17 71.18,29.58 71.36,29.00 C 71.54,28.42 71.77,27.83 72.03,27.25 C 72.29,26.67 72.59,26.08 72.90,25.50 C 73.21,24.92 73.56,24.33 73.91,23.75 C 74.26,23.17 74.82,22.29 75.00,22.00" fill="none" stroke="currentColor" stroke-width="9.5" stroke-linecap="round"/>
  <ellipse cx="60" cy="87" rx="35" ry="11" fill="currentColor"/>
</svg>
